<svg xmlns="http://www.w3.org/2000/svg" version="1.1" xmlns:xlink="http://www.w3.org/1999/xlink" viewBox="0 0 16.13574291922742 3.5867540584877595"><g transform="matrix(0.6857650923928675,0,0,0.6857650923928675,3.09874850778714,1.270128275012926)"><g transform="matrix(1,0,0,1,0,0)" clip-path="url(#SvgjsClipPath23958)"><g clip-path="url(#SvgjsClipPath239563fa2f64f-c756-4ea6-bab6-57c8d295802f)"><path d=" M 9.563289403794935 0.2671029278952328 L 9.439966127932864 0.2671029278952328 L 9.439966127932864 0.39042620375730186 L 9.563289403794935 0.39042620375730186 Z" fill="#343432" transform="matrix(1,0,0,1,0,0)" fill-rule="nonzero"></path></g><g clip-path="url(#SvgjsClipPath239563fa2f64f-c756-4ea6-bab6-57c8d295802f)"><path d=" M 9.263780423909877 0.5666119077802905 L 10.03898408770298 0.5666119077802905 L 10.03898408770298 -0.20859175601281332 L 9.263780423909877 -0.20859175601281332 Z M 9.943027601660287 -0.11263526997012034 L 9.35973690995257 -0.11263526997012034 L 9.35973690995257 0.09091722387224427 L 9.739475107817922 0.09091722387224427 L 9.739475107817922 0.47065542173759745 L 9.943027601660287 0.47065542173759745 Z M 9.35973690995257 0.47065542173759745 L 9.643518621775229 0.47065542173759745 L 9.643518621775229 0.1868737099149373 L 9.35973690995257 0.1868737099149373 Z" fill="#343432" transform="matrix(1,0,0,1,0,0)" fill-rule="evenodd"></path></g><g clip-path="url(#SvgjsClipPath239563fa2f64f-c756-4ea6-bab6-57c8d295802f)"><path d=" M 9.175692369722684 0.09091722387224427 L 8.964271444024819 0.09091722387224427 L 8.964271444024819 0.866120887665348 L 9.739475107817922 0.866120887665348 L 9.739475107817922 0.6546999619674827 L 9.643518621775229 0.6546999619674827 L 9.643518621775229 0.7701644016226551 L 9.060227930067512 0.7701644016226551 L 9.060227930067512 0.1868737099149373 L 9.175692369722684 0.1868737099149373 Z" fill="#343432" transform="matrix(1,0,0,1,0,0)" fill-rule="nonzero"></path></g></g><g><path d=" M 0.17173390558366736 0.6093024869338336 Q 0.17173390558366736 0.6281226409703998 0.16232382856538422 0.6351801987341122 Q 0.14820871303795952 0.6469427950069662 0.1305648186286786 0.6469427950069662 Q 0.10586336645568536 0.6469427950069662 0.09645328943740222 0.6257701217158291 Q 0.09410077018283143 0.6187125639521167 0.09410077018283143 0.6093024869338336 L 0.09410077018283143 0.04352160620955958 Q 0.09410077018283143 0.02352519254570795 0.10586336645568536 0.014115115527424726 Q 0.1176259627285393 0.0047050385091416125 0.12821229937410783 0.0047050385091416125 Q 0.13879863601967637 0.0047050385091416125 0.1458561937833887 0.007057557763712419 Q 0.15291375154710107 0.009410077018283225 0.15879504968352803 0.01529137515471013 Q 0.17173390558366736 0.025877711800278647 0.17173390558366736 0.04352160620955958 L 0.17173390558366736 0.2893598683122067 L 0.44227361985930774 0.01882015403656634 Q 0.45521247575944707 0.0047050385091416125 0.4699157211005145 0.0047050385091416125 Q 0.48461896644158187 0.0047050385091416125 0.49520530308715044 0.014115115527424726 Q 0.505791639732719 0.02352519254570795 0.505791639732719 0.03705217825948992 Q 0.505791639732719 0.050579163973272 0.4987340819690066 0.06116550061884052 L 0.25642459874821566 0.2964174260759191 L 0.5222592745147144 0.5857772943881258 Q 0.5457844670604223 0.6151837850702606 0.5199067552601436 0.6363564583613976 Q 0.505791639732719 0.6469427950069662 0.49167652420529423 0.6469427950069662 Q 0.47285637016872795 0.6469427950069662 0.46227003352315943 0.6304751602249706 L 0.17173390558366736 0.3175900993670561 L 0.17173390558366736 0.6093024869338336 M 0.6633832919630879 0.04352160620955958 Q 0.6633832919630879 0.025877711800278647 0.6727933689813711 0.01882015403656634 Q 0.6880847441360811 0.0047050385091416125 0.703964249104434 0.0047050385091416125 Q 0.7198437540727868 0.0047050385091416125 0.7321944801592835 0.014115115527424726 Q 0.74454520624578 0.02352519254570795 0.74454520624578 0.04352160620955958 L 0.74454520624578 0.4234534658227415 Q 0.74454520624578 0.5034391204781482 0.7974768894736227 0.550489505569564 Q 0.8445272745650385 0.5904823328972673 0.9139265925748766 0.5904823328972673 Q 0.9845021702120003 0.5904823328972673 1.0303762956761306 0.550489505569564 Q 1.0833079789039732 0.505791639732719 1.0833079789039732 0.4234534658227415 L 1.0833079789039732 0.04352160620955958 Q 1.0833079789039732 0.025877711800278647 1.0938943155495418 0.01882015403656634 Q 1.1080094310769666 0.0047050385091416125 1.1238889360453193 0.0047050385091416125 Q 1.139768441013672 0.0047050385091416125 1.1521191671001687 0.014115115527424726 Q 1.1644698931866653 0.02352519254570795 1.1644698931866653 0.04352160620955958 L 1.1644698931866653 0.4234534658227415 Q 1.1644698931866653 0.5363743900421393 1.0891892770404001 0.6010686695428359 Q 1.0209662186578474 0.6575291316525347 0.9139265925748766 0.6563528720252493 Q 0.8080632261191912 0.6563528720252493 0.7386639081093531 0.6010686695428359 Q 0.6633832919630879 0.5363743900421393 0.6633832919630879 0.4234534658227415 L 0.6633832919630879 0.04352160620955958 M 1.6879253858355245 0.5434319478058516 L 1.9008283783741806 0.07292809689169444 Q 1.919648532410747 0.032935269563991065 1.9290586094290303 0.022348932918422548 Q 1.9490550230928818 0.0047050385091416125 1.9696395665703763 0.0047050385091416125 Q 1.9902241100478706 0.0047050385091416125 2.001398576507082 0.009410077018283225 Q 2.012573042966293 0.014115115527424726 2.0208068603572906 0.022348932918422548 Q 2.0408032740211426 0.04234534658227418 2.0408032740211426 0.07528061614626524 L 2.0408032740211426 0.6116550061884044 Q 2.0408032740211426 0.6292989005976852 2.0296288075619313 0.6381208478023257 Q 2.01845434110272 0.6469427950069662 2.004339225575295 0.6469427950069662 Q 1.9902241100478706 0.6469427950069662 1.979637773402302 0.6381208478023257 Q 1.9690514367567336 0.6292989005976852 1.9690514367567336 0.6116550061884044 L 1.9690514367567336 0.08469069316454836 L 1.7361520305542257 0.5975398906609797 Q 1.7220369150268011 0.6328276794795414 1.6867491262082392 0.6328276794795414 Q 1.656166375898819 0.6328276794795414 1.638522481489538 0.5975398906609797 L 1.4067993349143157 0.08704321241911916 L 1.4067993349143157 0.6116550061884044 Q 1.4067993349143157 0.6292989005976852 1.3956248684551045 0.6381208478023257 Q 1.3844504019958932 0.6469427950069662 1.3703352864684686 0.6469427950069662 Q 1.3562201709410437 0.6469427950069662 1.3450457044818325 0.6381208478023257 Q 1.3338712380226214 0.6292989005976852 1.3338712380226214 0.6116550061884044 L 1.3338712380226214 0.07528061614626524 Q 1.3338712380226214 0.02352519254570795 1.3715115460957539 0.009410077018283225 Q 1.3844504019958932 0.007057557763712419 1.3979773877096753 0.005881298136427016 Q 1.4115043734234574 0.0047050385091416125 1.4226788398826684 0.008233817390997822 Q 1.4338533063418797 0.011762596272854031 1.4420871237328774 0.01882015403656634 Q 1.4562022392603022 0.03058275030942026 1.4773749125514393 0.07292809689169444 L 1.6867491262082392 0.5434319478058516 L 1.6879253858355245 0.5434319478058516 M 2.727761295831136 0.5975398906609797 Q 2.7289375554584216 0.604597448424692 2.7289375554584216 0.6116550061884044 Q 2.7289375554584216 0.6187125639521167 2.7254087765765656 0.6257701217158291 Q 2.7218799976947095 0.6328276794795414 2.7159986995582823 0.6363564583613976 Q 2.7042361032854285 0.6469427950069662 2.6901209877580037 0.6469427950069662 Q 2.661890756703154 0.6469427950069662 2.6524806796848712 0.6222413428339729 L 2.594843957947887 0.47991392793244037 L 2.277253858580831 0.47991392793244037 L 2.220793396471132 0.6222413428339729 Q 2.2125595790801342 0.6469427950069662 2.187858126907141 0.6469427950069662 Q 2.1631566747341475 0.6469427950069662 2.150217818834008 0.6257701217158291 Q 2.146689039952152 0.6187125639521167 2.146689039952152 0.6128312658156898 Q 2.146689039952152 0.6069499676792628 2.150217818834008 0.5975398906609797 L 2.3631208113726645 0.07528061614626524 Q 2.386646003918372 0.016467634781995533 2.4172287542277924 0.008233817390997822 Q 2.42546257161879 0.007057557763712419 2.4384014275189294 0.0047050385091416125 Q 2.4619266200646375 0.0047050385091416125 2.4736892163374913 0.01529137515471013 Q 2.4925093703740577 0.029406490682134856 2.511329524410624 0.07528061614626524 L 2.727761295831136 0.5975398906609797 M 2.2996027914992534 0.41757216768631455 L 2.5736712846567498 0.41757216768631455 L 2.436048908264359 0.07175183726440904 L 2.2996027914992534 0.41757216768631455 M 2.839512852569502 0.044697865836844985 Q 2.839512852569502 0.021172673291137145 2.865390564369781 0.008233817390997822 Q 2.8724481221334934 0.0047050385091416125 2.880681939524491 0.0047050385091416125 L 3.07241225877201 0.0047050385091416125 Q 3.227678529573682 0.0047050385091416125 3.28178647242881 0.08704321241911916 Q 3.300606626465376 0.12115474161039552 3.300606626465376 0.17349829502459552 Q 3.300606626465376 0.2258418484387955 3.2664950972741 0.2623058968846427 Q 3.2323835680828235 0.29876994533048984 3.1688655482094124 0.31170880123062916 L 3.1688655482094124 0.31523758011248537 Q 3.230031048828253 0.3258239167580539 3.2559087606285315 0.3611117055766157 Q 3.275905174292383 0.3905181962587505 3.281198342615167 0.439921100604737 Q 3.2864915109379513 0.4893240049507235 3.290020289819808 0.5175542360055729 Q 3.293549068701664 0.5587233229605617 3.29707784758352 0.6081262273065482 Q 3.29707784758352 0.6281226409703998 3.2847271214970233 0.637532717988683 Q 3.272376395410527 0.6469427950069662 3.2570850202558166 0.6469427950069662 Q 3.2417936451011067 0.6469427950069662 3.230031048828253 0.6381208478023257 Q 3.2182684525553986 0.6292989005976852 3.215915933300828 0.6116550061884044 Q 3.2112108947916864 0.5575470633332763 3.2076821159098303 0.5157898465646449 Q 3.2041533370279742 0.4740326297960134 3.1994482985188326 0.44521426892752125 Q 3.194743260009691 0.41639590805902915 3.1865094426186933 0.39757575402246287 Q 3.1782756252276956 0.3787555999858966 3.1641605097002707 0.36816926334032807 Q 3.1406353171545627 0.35052536893104713 3.071235999144725 0.3481728496764764 L 2.919498507224909 0.3481728496764764 L 2.919498507224909 0.6081262273065482 Q 2.919498507224909 0.6363564583613976 2.8947970550519155 0.6445902757523954 Q 2.8877394972882033 0.6469427950069662 2.876565030828992 0.6469427950069662 Q 2.865390564369781 0.6469427950069662 2.8524517084696415 0.637532717988683 Q 2.839512852569502 0.6281226409703998 2.839512852569502 0.6081262273065482 L 2.839512852569502 0.044697865836844985 M 3.037124469953448 0.2870073490576359 Q 3.148869134545561 0.2870073490576359 3.187685702245979 0.25171956023907416 Q 3.215915933300828 0.22701810806608091 3.2182684525553986 0.17761520372009437 Q 3.2182684525553986 0.1082158857102562 3.1665130289548413 0.08586695279183376 Q 3.138282797899992 0.07175183726440904 3.110052566845143 0.06998744782348099 Q 3.081822335790293 0.06822305838255283 3.0653547010082978 0.06822305838255283 L 2.919498507224909 0.06822305838255283 L 2.919498507224909 0.2870073490576359 L 3.037124469953448 0.2870073490576359 M 4.112184416414776 0.04352160620955958 Q 4.112184416414776 0.016467634781995533 4.13923838784234 0.008233817390997822 Q 4.146295945606052 0.007057557763712419 4.156882282251621 0.005881298136427016 Q 4.167468618897189 0.0047050385091416125 4.180407474797329 0.014115115527424726 Q 4.193346330697468 0.02352519254570795 4.193346330697468 0.04352160620955958 L 4.193346330697468 0.6081262273065482 Q 4.193346330697468 0.6257701217158291 4.182759994051899 0.6351801987341122 Q 4.168644878524475 0.6469427950069662 4.152765373556122 0.6469427950069662 Q 4.136885868587769 0.6469427950069662 4.124535142501273 0.637532717988683 Q 4.112184416414776 0.6281226409703998 4.112184416414776 0.6081262273065482 L 4.112184416414776 0.346996590049191 L 3.774597903383868 0.346996590049191 L 3.774597903383868 0.6081262273065482 Q 3.774597903383868 0.6257701217158291 3.765187826365585 0.6351801987341122 Q 3.7510727108381605 0.6469427950069662 3.734605076056165 0.6469427950069662 Q 3.7181374412741692 0.6469427950069662 3.7063748450013154 0.637532717988683 Q 3.6946122487284616 0.6281226409703998 3.6946122487284616 0.6081262273065482 L 3.6946122487284616 0.04352160620955958 Q 3.6946122487284616 0.016467634781995533 3.7204899605287403 0.008233817390997822 Q 3.7275475182924525 0.007057557763712419 3.738133854938021 0.005881298136427016 Q 3.7487201915835895 0.0047050385091416125 3.761659047483729 0.014115115527424726 Q 3.774597903383868 0.02352519254570795 3.774597903383868 0.04352160620955958 L 3.774597903383868 0.27994979129392356 L 4.112184416414776 0.27994979129392356 L 4.112184416414776 0.04352160620955958 M 4.4226954200610775 0.3287645658262674 Q 4.4226954200610775 0.3752268211040404 4.433869886520289 0.42462972545002686 Q 4.4450443529795 0.4740326297960134 4.472098324407064 0.5110848080555033 Q 4.4991522958346275 0.5481369863149932 4.539145123162331 0.5704859192334156 Q 4.5791379504900345 0.5928348521518381 4.636774672227019 0.5928348521518381 Q 4.694411393964003 0.5928348521518381 4.735580480918991 0.5704859192334156 Q 4.77674956787398 0.5481369863149932 4.802627279674259 0.5110848080555033 Q 4.828504991474538 0.4740326297960134 4.840855717561034 0.42462972545002686 Q 4.853206443647531 0.3752268211040404 4.853206443647531 0.3287645658262674 Q 4.853206443647531 0.28230231054849436 4.840855717561034 0.23348753601615058 Q 4.828504991474538 0.18467276148380674 4.802627279674259 0.14762058322431687 Q 4.77674956787398 0.110568404964827 4.735580480918991 0.08821947204640457 Q 4.694411393964003 0.06587053912798202 4.636774672227019 0.06587053912798202 Q 4.5791379504900345 0.06587053912798202 4.539145123162331 0.08821947204640457 Q 4.4991522958346275 0.110568404964827 4.472098324407064 0.14762058322431687 Q 4.4450443529795 0.18467276148380674 4.433869886520289 0.23348753601615058 Q 4.4226954200610775 0.28230231054849436 4.4226954200610775 0.3287645658262674 M 4.334475948014672 0.3270001763853393 Q 4.334475948014672 0.2587771180027865 4.354472361678525 0.19761161738394606 Q 4.374468775342376 0.13644611676510565 4.414461602670079 0.09292451055554607 Q 4.494447257325486 0.0011762596272854031 4.635598412599734 0 Q 4.7791020871285514 0 4.8602640014112435 0.09292451055554607 Q 4.8990805691116615 0.13644611676510565 4.91848885296187 0.19761161738394606 Q 4.937897136812079 0.2587771180027865 4.937897136812079 0.3270001763853393 Q 4.937897136812079 0.39639949439517747 4.91848885296187 0.459329384454946 Q 4.8990805691116615 0.5222592745147145 4.8602640014112435 0.5646046210969886 Q 4.7791020871285514 0.6563528720252493 4.635598412599734 0.6563528720252493 Q 4.493270997698201 0.6563528720252493 4.414461602670079 0.5646046210969886 Q 4.374468775342376 0.5199067552601437 4.354472361678525 0.4581531248276606 Q 4.334475948014672 0.39639949439517747 4.334475948014672 0.3270001763853393 M 5.435467451168885 0.5434319478058516 L 5.648370443707542 0.07292809689169444 Q 5.667190597744108 0.032935269563991065 5.676600674762391 0.022348932918422548 Q 5.696597088426243 0.0047050385091416125 5.717181631903737 0.0047050385091416125 Q 5.737766175381232 0.0047050385091416125 5.748940641840443 0.009410077018283225 Q 5.7601151082996545 0.014115115527424726 5.768348925690652 0.022348932918422548 Q 5.788345339354503 0.04234534658227418 5.788345339354503 0.07528061614626524 L 5.788345339354503 0.6116550061884044 Q 5.788345339354503 0.6292989005976852 5.777170872895292 0.6381208478023257 Q 5.765996406436081 0.6469427950069662 5.751881290908656 0.6469427950069662 Q 5.737766175381232 0.6469427950069662 5.727179838735664 0.6381208478023257 Q 5.716593502090094 0.6292989005976852 5.716593502090094 0.6116550061884044 L 5.716593502090094 0.08469069316454836 L 5.483694095887587 0.5975398906609797 Q 5.469578980360162 0.6328276794795414 5.4342911915416 0.6328276794795414 Q 5.40370844123218 0.6328276794795414 5.386064546822899 0.5975398906609797 L 5.154341400247676 0.08704321241911916 L 5.154341400247676 0.6116550061884044 Q 5.154341400247676 0.6292989005976852 5.143166933788466 0.6381208478023257 Q 5.131992467329255 0.6469427950069662 5.1178773518018295 0.6469427950069662 Q 5.103762236274405 0.6469427950069662 5.092587769815194 0.6381208478023257 Q 5.0814133033559825 0.6292989005976852 5.0814133033559825 0.6116550061884044 L 5.0814133033559825 0.07528061614626524 Q 5.0814133033559825 0.02352519254570795 5.119053611429115 0.009410077018283225 Q 5.131992467329255 0.007057557763712419 5.145519453043036 0.005881298136427016 Q 5.1590464387568185 0.0047050385091416125 5.17022090521603 0.008233817390997822 Q 5.181395371675241 0.011762596272854031 5.189629189066238 0.01882015403656634 Q 5.2037443045936635 0.03058275030942026 5.2249169778848 0.07292809689169444 L 5.4342911915416 0.5434319478058516 L 5.435467451168885 0.5434319478058516 M 6.00244699099577 0.6469427950069662 Q 5.9883318754683454 0.6469427950069662 5.978921798450062 0.637532717988683 Q 5.962454163668067 0.6234176024612583 5.962454163668067 0.6081262273065482 L 5.962454163668067 0.044697865836844985 Q 5.962454163668067 0.022348932918422548 5.985979356213774 0.009410077018283225 Q 5.993036913977487 0.007057557763712419 6.000094471741199 0.0047050385091416125 L 6.335328465517536 0.0047050385091416125 Q 6.352972359926817 0.0047050385091416125 6.361206177317815 0.01529137515471013 Q 6.369439994708812 0.025877711800278647 6.369439994708812 0.038228437886775324 Q 6.369439994708812 0.050579163973272 6.360029917690529 0.06116550061884052 Q 6.3506198406722465 0.07175183726440904 6.335328465517536 0.07175183726440904 L 6.040087299068903 0.07175183726440904 L 6.040087299068903 0.28465482980306517 L 6.321213349990112 0.28465482980306517 Q 6.338857244399392 0.28465482980306517 6.34709106179039 0.294653036634991 Q 6.355324879181388 0.3046512434669168 6.355324879181388 0.3175900993670561 Q 6.355324879181388 0.3293526956399101 6.345914802163104 0.3387627726581932 Q 6.336504725144821 0.3481728496764764 6.321213349990112 0.3481728496764764 L 6.040087299068903 0.3481728496764764 L 6.040087299068903 0.5810722558789841 L 6.3482673214176755 0.5810722558789841 Q 6.364734956199671 0.5810722558789841 6.372968773590669 0.5916585925245527 Q 6.381202590981666 0.6022449291701213 6.381202590981666 0.6151837850702606 Q 6.381202590981666 0.6281226409703998 6.372380643777026 0.637532717988683 Q 6.363558696572386 0.6469427950069662 6.3482673214176755 0.6469427950069662 L 6.00244699099577 0.6469427950069662 M 6.488255714184383 0.3293526956399101 Q 6.488255714184383 0.26818719502106964 6.505899608593665 0.20584543477494383 Q 6.523543503002945 0.14350367452881796 6.560007551448793 0.09880580869197308 Q 6.637640686849629 0 6.781144361378447 0 Q 6.863482535288424 0 6.94111567068926 0.036464048445847275 Q 6.961112084353111 0.044697865836844985 6.961112084353111 0.06351801987341132 Q 6.961112084353111 0.09880580869197308 6.932881853298262 0.09998206831925849 Q 6.927000555161835 0.09998206831925849 6.922295516652694 0.09880580869197308 Q 6.841133602370001 0.07057557763712363 6.793495087464943 0.07057557763712363 Q 6.745856572559885 0.07057557763712363 6.714097562623179 0.08116191428269215 Q 6.682338552686473 0.09174825092826067 6.6588133601407655 0.110568404964827 Q 6.635288167595058 0.12938855900139323 6.6188205328130625 0.15409001117438653 Q 6.602352898031067 0.17879146334737978 6.592942821012784 0.20937421365679998 Q 6.572946407348932 0.26583467576649883 6.572946407348932 0.3293526956399101 Q 6.572946407348932 0.4328635428410247 6.6188205328130625 0.5034391204781482 Q 6.67292847566819 0.5869535540154112 6.785849399887588 0.5869535540154112 Q 6.863482535288424 0.5869535540154112 6.934058112925547 0.5457844670604224 Q 6.943468189943831 0.5434319478058516 6.952290137148471 0.5434319478058516 Q 6.961112084353111 0.5434319478058516 6.968757771930466 0.5516657651968493 Q 6.9764034595078215 0.5598995825878471 6.9764034595078215 0.5728384384879864 Q 6.9764034595078215 0.5857772943881258 6.966993382489538 0.5969517608473369 Q 6.957583305471255 0.6081262273065482 6.941703800502903 0.6169481745111887 Q 6.92582429553455 0.6257701217158291 6.906416011684341 0.6328276794795414 Q 6.887007727834132 0.6398852372432539 6.865835054542995 0.6445902757523954 Q 6.82113718870615 0.6563528720252493 6.781144361378447 0.6563528720252493 Q 6.636464427222343 0.6563528720252493 6.560007551448793 0.5587233229605617 Q 6.488255714184383 0.47050385091415725 6.488255714184383 0.3293526956399101 M 7.658609490062321 0.5975398906609797 Q 7.659785749689606 0.604597448424692 7.659785749689606 0.6116550061884044 Q 7.659785749689606 0.6187125639521167 7.65625697080775 0.6257701217158291 Q 7.652728191925894 0.6328276794795414 7.646846893789467 0.6363564583613976 Q 7.635084297516613 0.6469427950069662 7.620969181989189 0.6469427950069662 Q 7.592738950934339 0.6469427950069662 7.583328873916056 0.6222413428339729 L 7.525692152179071 0.47991392793244037 L 7.208102052812015 0.47991392793244037 L 7.151641590702316 0.6222413428339729 Q 7.143407773311319 0.6469427950069662 7.118706321138325 0.6469427950069662 Q 7.0940048689653326 0.6469427950069662 7.081066013065193 0.6257701217158291 Q 7.077537234183337 0.6187125639521167 7.077537234183337 0.6128312658156898 Q 7.077537234183337 0.6069499676792628 7.081066013065193 0.5975398906609797 L 7.293969005603849 0.07528061614626524 Q 7.317494198149557 0.016467634781995533 7.348076948458977 0.008233817390997822 Q 7.356310765849975 0.007057557763712419 7.369249621750114 0.0047050385091416125 Q 7.392774814295822 0.0047050385091416125 7.404537410568676 0.01529137515471013 Q 7.423357564605242 0.029406490682134856 7.442177718641808 0.07528061614626524 L 7.658609490062321 0.5975398906609797 M 7.230450985730438 0.41757216768631455 L 7.504519478887934 0.41757216768631455 L 7.366897102495543 0.07175183726440904 L 7.230450985730438 0.41757216768631455 M 7.770361046800687 0.044697865836844985 Q 7.770361046800687 0.021172673291137145 7.796238758600966 0.008233817390997822 Q 7.803296316364678 0.0047050385091416125 7.811530133755675 0.0047050385091416125 L 8.003260453003195 0.0047050385091416125 Q 8.158526723804867 0.0047050385091416125 8.212634666659994 0.08704321241911916 Q 8.23145482069656 0.12115474161039552 8.23145482069656 0.17349829502459552 Q 8.23145482069656 0.2258418484387955 8.197343291505284 0.2623058968846427 Q 8.163231762314009 0.29876994533048984 8.099713742440597 0.31170880123062916 L 8.099713742440597 0.31523758011248537 Q 8.160879243059437 0.3258239167580539 8.186756954859716 0.3611117055766157 Q 8.206753368523568 0.3905181962587505 8.212046536846351 0.439921100604737 Q 8.217339705169136 0.4893240049507235 8.220868484050992 0.5175542360055729 Q 8.224397262932849 0.5587233229605617 8.227926041814705 0.6081262273065482 Q 8.227926041814705 0.6281226409703998 8.215575315728207 0.637532717988683 Q 8.203224589641712 0.6469427950069662 8.187933214487002 0.6469427950069662 Q 8.172641839332291 0.6469427950069662 8.160879243059437 0.6381208478023257 Q 8.149116646786583 0.6292989005976852 8.146764127532013 0.6116550061884044 Q 8.14205908902287 0.5575470633332763 8.138530310141014 0.5157898465646449 Q 8.135001531259158 0.4740326297960134 8.130296492750016 0.44521426892752125 Q 8.125591454240876 0.41639590805902915 8.117357636849878 0.39757575402246287 Q 8.10912381945888 0.3787555999858966 8.095008703931455 0.36816926334032807 Q 8.071483511385747 0.35052536893104713 8.002084193375909 0.3481728496764764 L 7.850346701456093 0.3481728496764764 L 7.850346701456093 0.6081262273065482 Q 7.850346701456093 0.6363564583613976 7.825645249283101 0.6445902757523954 Q 7.818587691519388 0.6469427950069662 7.807413225060177 0.6469427950069662 Q 7.796238758600966 0.6469427950069662 7.7832999027008265 0.637532717988683 Q 7.770361046800687 0.6281226409703998 7.770361046800687 0.6081262273065482 L 7.770361046800687 0.044697865836844985 M 7.967972664184633 0.2870073490576359 Q 8.079717328776745 0.2870073490576359 8.118533896477164 0.25171956023907416 Q 8.146764127532013 0.22701810806608091 8.149116646786583 0.17761520372009437 Q 8.149116646786583 0.1082158857102562 8.097361223186025 0.08586695279183376 Q 8.069130992131177 0.07175183726440904 8.040900761076328 0.06998744782348099 Q 8.012670530021477 0.06822305838255283 7.996202895239482 0.06822305838255283 L 7.850346701456093 0.06822305838255283 L 7.850346701456093 0.2870073490576359 L 7.967972664184633 0.2870073490576359 M 8.431394404064049 0.6469427950069662 Q 8.417279288536625 0.6469427950069662 8.40786921151834 0.637532717988683 Q 8.391401576736346 0.6234176024612583 8.391401576736346 0.6081262273065482 L 8.391401576736346 0.044697865836844985 Q 8.391401576736346 0.022348932918422548 8.414926769282053 0.009410077018283225 Q 8.421984327045767 0.007057557763712419 8.429041884809479 0.0047050385091416125 L 8.764275878585815 0.0047050385091416125 Q 8.781919772995096 0.0047050385091416125 8.790153590386094 0.01529137515471013 Q 8.798387407777092 0.025877711800278647 8.798387407777092 0.038228437886775324 Q 8.798387407777092 0.050579163973272 8.788977330758808 0.06116550061884052 Q 8.779567253740526 0.07175183726440904 8.764275878585815 0.07175183726440904 L 8.469034712137182 0.07175183726440904 L 8.469034712137182 0.28465482980306517 L 8.75016076305839 0.28465482980306517 Q 8.767804657467671 0.28465482980306517 8.77603847485867 0.294653036634991 Q 8.784272292249668 0.3046512434669168 8.784272292249668 0.3175900993670561 Q 8.784272292249668 0.3293526956399101 8.774862215231384 0.3387627726581932 Q 8.765452138213101 0.3481728496764764 8.75016076305839 0.3481728496764764 L 8.469034712137182 0.3481728496764764 L 8.469034712137182 0.5810722558789841 L 8.777214734485954 0.5810722558789841 Q 8.79368236926795 0.5810722558789841 8.801916186658948 0.5916585925245527 Q 8.810150004049945 0.6022449291701213 8.810150004049945 0.6151837850702606 Q 8.810150004049945 0.6281226409703998 8.801328056845305 0.637532717988683 Q 8.792506109640664 0.6469427950069662 8.777214734485954 0.6469427950069662 L 8.431394404064049 0.6469427950069662" fill="#343432" fill-rule="nonzero"></path></g><g><path d=" M 10.28484028148637 0.16702886707452586 Q 10.28484028148637 0.1917303192475191 10.301307916268364 0.2134911223522989 Q 10.31777555105036 0.23525192545707863 10.343653262850639 0.24936704098450335 Q 10.369530974650917 0.2634821565119281 10.402466244214908 0.2740684931574966 Q 10.4354015137789 0.28465482980306517 10.471865562224746 0.2964174260759191 Q 10.508329610670593 0.308180022348773 10.543617399489156 0.32229513787619773 Q 10.578905188307717 0.3364102534036224 10.604782900107995 0.3575829266947595 Q 10.661243362217695 0.40345705215888983 10.661243362217695 0.48226644718701117 Q 10.661243362217695 0.5199067552601437 10.643599467808414 0.5534301546377774 Q 10.625955573399132 0.5869535540154112 10.594196563462427 0.6093024869338336 Q 10.52950228396173 0.6563528720252493 10.421286398251475 0.6563528720252493 Q 10.318951810677644 0.6563528720252493 10.241318675276808 0.604597448424692 Q 10.193092030558107 0.5740146981152718 10.193092030558107 0.5528420248241347 Q 10.193092030558107 0.5340218707875685 10.211912184594674 0.5222592745147145 Q 10.216617223103816 0.5175542360055729 10.223674780867528 0.5175542360055729 Q 10.23073233863124 0.5175542360055729 10.238966156022238 0.523435534142 Q 10.247199973413236 0.5293168322784269 10.258374439872448 0.5375506496694247 Q 10.269548906331659 0.5457844670604224 10.286604670927296 0.5557826738923483 Q 10.303660435522934 0.565780880724274 10.3224805895595 0.5740146981152718 Q 10.369530974650917 0.5928348521518381 10.414228840487763 0.5916585925245527 Q 10.458926706324606 0.5904823328972673 10.48598067775217 0.5846010347608404 Q 10.513034649179735 0.5787197366244133 10.534207322470872 0.5646046210969886 Q 10.578905188307717 0.5340218707875685 10.580081447935003 0.48697148569615273 Q 10.580081447935003 0.42815850433188307 10.522444726198017 0.39639949439517747 Q 10.496567014397739 0.38228437886775274 10.464219874647391 0.3711099124085415 Q 10.431872734897043 0.3599354459493303 10.395996816264837 0.34934910930376173 Q 10.360120897632633 0.3387627726581932 10.324833108814072 0.3234713975034831 Q 10.28954531999551 0.308180022348773 10.262491348567947 0.2870073490576359 Q 10.204854626830961 0.24113322359350559 10.204854626830961 0.16938138632909666 Q 10.204854626830961 0.13174107825596404 10.223086651053885 0.09880580869197308 Q 10.241318675276808 0.06587053912798202 10.273077685213515 0.044697865836844985 Q 10.334243185832355 0.0011762596272854031 10.425991436760615 0 Q 10.558908774643864 0 10.640070688926556 0.08586695279183376 Q 10.644775727435698 0.09292451055554607 10.644775727435698 0.10174645776018654 Q 10.644775727435698 0.110568404964827 10.644187597622055 0.11644970310125391 Q 10.643599467808414 0.12233100123768093 10.637718169671986 0.12821229937410783 Q 10.629484352280988 0.13879863601967646 10.615957366567207 0.13879863601967646 Q 10.602430380853425 0.13879863601967646 10.587139005698715 0.12115474161039552 Q 10.548322437998296 0.09292451055554607 10.52479724545259 0.08469069316454836 Q 10.477746860361172 0.06587053912798202 10.433048994524327 0.06587053912798202 Q 10.375412272787344 0.06587053912798202 10.334243185832355 0.08939573167368997 Q 10.28484028148637 0.11762596272853931 10.28484028148637 0.16702886707452586 M 10.84000725698006 0.6469427950069662 Q 10.825892141452636 0.6469427950069662 10.816482064434352 0.637532717988683 Q 10.800014429652357 0.6234176024612583 10.800014429652357 0.6081262273065482 L 10.800014429652357 0.044697865836844985 Q 10.800014429652357 0.022348932918422548 10.823539622198064 0.009410077018283225 Q 10.830597179961778 0.007057557763712419 10.83765473772549 0.0047050385091416125 L 11.172888731501827 0.0047050385091416125 Q 11.190532625911107 0.0047050385091416125 11.198766443302105 0.01529137515471013 Q 11.207000260693103 0.025877711800278647 11.207000260693103 0.038228437886775324 Q 11.207000260693103 0.050579163973272 11.19759018367482 0.06116550061884052 Q 11.188180106656537 0.07175183726440904 11.172888731501827 0.07175183726440904 L 10.877647565053193 0.07175183726440904 L 10.877647565053193 0.28465482980306517 L 11.158773615974402 0.28465482980306517 Q 11.176417510383683 0.28465482980306517 11.18465132777468 0.294653036634991 Q 11.192885145165679 0.3046512434669168 11.192885145165679 0.3175900993670561 Q 11.192885145165679 0.3293526956399101 11.183475068147395 0.3387627726581932 Q 11.174064991129113 0.3481728496764764 11.158773615974402 0.3481728496764764 L 10.877647565053193 0.3481728496764764 L 10.877647565053193 0.5810722558789841 L 11.185827587401965 0.5810722558789841 Q 11.202295222183961 0.5810722558789841 11.21052903957496 0.5916585925245527 Q 11.218762856965956 0.6022449291701213 11.218762856965956 0.6151837850702606 Q 11.218762856965956 0.6281226409703998 11.209940909761317 0.637532717988683 Q 11.201118962556675 0.6469427950069662 11.185827587401965 0.6469427950069662 L 10.84000725698006 0.6469427950069662 M 11.362280028614522 0.044697865836844985 Q 11.362280028614522 0.021172673291137145 11.388157740414801 0.008233817390997822 Q 11.395215298178513 0.0047050385091416125 11.403449115569511 0.0047050385091416125 L 11.59517943481703 0.0047050385091416125 Q 11.750445705618702 0.0047050385091416125 11.80455364847383 0.08704321241911916 Q 11.823373802510396 0.12115474161039552 11.823373802510396 0.17349829502459552 Q 11.823373802510396 0.2258418484387955 11.78926227331912 0.2623058968846427 Q 11.755150744127844 0.29876994533048984 11.691632724254433 0.31170880123062916 L 11.691632724254433 0.31523758011248537 Q 11.752798224873272 0.3258239167580539 11.778675936673551 0.3611117055766157 Q 11.798672350337403 0.3905181962587505 11.803965518660187 0.439921100604737 Q 11.809258686982972 0.4893240049507235 11.812787465864828 0.5175542360055729 Q 11.816316244746684 0.5587233229605617 11.81984502362854 0.6081262273065482 Q 11.81984502362854 0.6281226409703998 11.807494297542043 0.637532717988683 Q 11.795143571455547 0.6469427950069662 11.779852196300837 0.6469427950069662 Q 11.764560821146127 0.6469427950069662 11.752798224873272 0.6381208478023257 Q 11.741035628600418 0.6292989005976852 11.738683109345848 0.6116550061884044 Q 11.733978070836706 0.5575470633332763 11.73044929195485 0.5157898465646449 Q 11.726920513072994 0.4740326297960134 11.722215474563852 0.44521426892752125 Q 11.717510436054711 0.41639590805902915 11.709276618663713 0.39757575402246287 Q 11.701042801272715 0.3787555999858966 11.68692768574529 0.36816926334032807 Q 11.663402493199582 0.35052536893104713 11.594003175189744 0.3481728496764764 L 11.442265683269929 0.3481728496764764 L 11.442265683269929 0.6081262273065482 Q 11.442265683269929 0.6363564583613976 11.417564231096936 0.6445902757523954 Q 11.410506673333224 0.6469427950069662 11.399332206874012 0.6469427950069662 Q 11.388157740414801 0.6469427950069662 11.375218884514661 0.637532717988683 Q 11.362280028614522 0.6281226409703998 11.362280028614522 0.6081262273065482 L 11.362280028614522 0.044697865836844985 M 11.559891645998468 0.2870073490576359 Q 11.67163631059058 0.2870073490576359 11.710452878291 0.25171956023907416 Q 11.738683109345848 0.22701810806608091 11.741035628600418 0.17761520372009437 Q 11.741035628600418 0.1082158857102562 11.68928020499986 0.08586695279183376 Q 11.661049973945012 0.07175183726440904 11.632819742890163 0.06998744782348099 Q 11.604589511835313 0.06822305838255283 11.588121877053318 0.06822305838255283 L 11.442265683269929 0.06822305838255283 L 11.442265683269929 0.2870073490576359 L 11.559891645998468 0.2870073490576359 M 12.186813474070554 0.5787197366244133 L 12.378543793318073 0.032935269563991065 Q 12.391482649218212 0.0047050385091416125 12.416184101391206 0.0047050385091416125 Q 12.43029921691863 0.0047050385091416125 12.439709293936913 0.011762596272854031 Q 12.453824409464339 0.02352519254570795 12.453824409464339 0.03999282732770337 L 12.453824409464339 0.044697865836844985 Q 12.453824409464339 0.04705038509141579 12.451471890209767 0.05175542360055729 L 12.250331493943966 0.5998924099155505 Q 12.23621637841654 0.6469427950069662 12.183284695188698 0.6469427950069662 Q 12.136234310097281 0.6469427950069662 12.119766675315287 0.5998924099155505 L 11.915097500167628 0.0541079428551281 Q 11.912744980913057 0.04705038509141579 11.912744980913057 0.041169086954988776 Q 11.912744980913057 0.03528778881856187 11.916273759794914 0.028230231054849453 Q 11.91980253867677 0.021172673291137145 11.925683836813196 0.01529137515471013 Q 11.938622692713336 0.0047050385091416125 11.95273780824076 0.0047050385091416125 Q 11.982144298922895 0.0047050385091416125 11.990378116313893 0.03058275030942026 L 12.186813474070554 0.5787197366244133 M 12.566718195857863 0.04352160620955958 Q 12.566718195857863 0.01882015403656634 12.59024338840357 0.008233817390997822 Q 12.597300946167282 0.007057557763712419 12.610239802067422 0.005881298136427016 Q 12.62317865796756 0.0047050385091416125 12.634353124426772 0.014115115527424726 Q 12.645527590885983 0.02352519254570795 12.645527590885983 0.04352160620955958 L 12.645527590885983 0.6081262273065482 Q 12.645527590885983 0.6363564583613976 12.62082613871299 0.6445902757523954 Q 12.613768580949278 0.6469427950069662 12.602005984676424 0.6469427950069662 Q 12.59024338840357 0.6469427950069662 12.578480792130716 0.637532717988683 Q 12.566718195857863 0.6281226409703998 12.566718195857863 0.6081262273065482 L 12.566718195857863 0.04352160620955958 M 12.790192448472158 0.3293526956399101 Q 12.790192448472158 0.26818719502106964 12.807836342881439 0.20584543477494383 Q 12.82548023729072 0.14350367452881796 12.861944285736566 0.09880580869197308 Q 12.939577421137402 0 13.08308109566622 0 Q 13.165419269576198 0 13.243052404977034 0.036464048445847275 Q 13.263048818640886 0.044697865836844985 13.263048818640886 0.06351801987341132 Q 13.263048818640886 0.09880580869197308 13.234818587586036 0.09998206831925849 Q 13.22893728944961 0.09998206831925849 13.224232250940467 0.09880580869197308 Q 13.143070336657775 0.07057557763712363 13.095431821752717 0.07057557763712363 Q 13.047793306847659 0.07057557763712363 13.016034296910954 0.08116191428269215 Q 12.984275286974247 0.09174825092826067 12.96075009442854 0.110568404964827 Q 12.937224901882832 0.12938855900139323 12.920757267100836 0.15409001117438653 Q 12.904289632318841 0.17879146334737978 12.894879555300557 0.20937421365679998 Q 12.874883141636706 0.26583467576649883 12.874883141636706 0.3293526956399101 Q 12.874883141636706 0.4328635428410247 12.920757267100836 0.5034391204781482 Q 12.974865209955965 0.5869535540154112 13.087786134175362 0.5869535540154112 Q 13.165419269576198 0.5869535540154112 13.235994847213322 0.5457844670604224 Q 13.245404924231604 0.5434319478058516 13.254226871436245 0.5434319478058516 Q 13.263048818640886 0.5434319478058516 13.270694506218241 0.5516657651968493 Q 13.278340193795596 0.5598995825878471 13.278340193795596 0.5728384384879864 Q 13.278340193795596 0.5857772943881258 13.268930116777312 0.5969517608473369 Q 13.25952003975903 0.6081262273065482 13.243640534790677 0.6169481745111887 Q 13.227761029822323 0.6257701217158291 13.208352745972116 0.6328276794795414 Q 13.188944462121906 0.6398852372432539 13.16777178883077 0.6445902757523954 Q 13.123073922993925 0.6563528720252493 13.08308109566622 0.6563528720252493 Q 12.938401161510118 0.6563528720252493 12.861944285736566 0.5587233229605617 Q 12.790192448472158 0.47050385091415725 12.790192448472158 0.3293526956399101 M 13.487689854181367 0.6469427950069662 Q 13.473574738653943 0.6469427950069662 13.464164661635659 0.637532717988683 Q 13.447697026853664 0.6234176024612583 13.447697026853664 0.6081262273065482 L 13.447697026853664 0.044697865836844985 Q 13.447697026853664 0.022348932918422548 13.47122221939937 0.009410077018283225 Q 13.478279777163085 0.007057557763712419 13.485337334926797 0.0047050385091416125 L 13.820571328703133 0.0047050385091416125 Q 13.838215223112414 0.0047050385091416125 13.846449040503412 0.01529137515471013 Q 13.85468285789441 0.025877711800278647 13.85468285789441 0.038228437886775324 Q 13.85468285789441 0.050579163973272 13.845272780876126 0.06116550061884052 Q 13.835862703857844 0.07175183726440904 13.820571328703133 0.07175183726440904 L 13.5253301622545 0.07175183726440904 L 13.5253301622545 0.28465482980306517 L 13.806456213175709 0.28465482980306517 Q 13.82410010758499 0.28465482980306517 13.832333924975988 0.294653036634991 Q 13.840567742366986 0.3046512434669168 13.840567742366986 0.3175900993670561 Q 13.840567742366986 0.3293526956399101 13.831157665348702 0.3387627726581932 Q 13.82174758833042 0.3481728496764764 13.806456213175709 0.3481728496764764 L 13.5253301622545 0.3481728496764764 L 13.5253301622545 0.5810722558789841 L 13.833510184603272 0.5810722558789841 Q 13.849977819385268 0.5810722558789841 13.858211636776266 0.5916585925245527 Q 13.866445454167263 0.6022449291701213 13.866445454167263 0.6151837850702606 Q 13.866445454167263 0.6281226409703998 13.857623506962623 0.637532717988683 Q 13.848801559757982 0.6469427950069662 13.833510184603272 0.6469427950069662 L 13.487689854181367 0.6469427950069662 M 14.066423087925529 0.16702886707452586 Q 14.066423087925529 0.1917303192475191 14.082890722707523 0.2134911223522989 Q 14.09935835748952 0.23525192545707863 14.125236069289798 0.24936704098450335 Q 14.151113781090077 0.2634821565119281 14.184049050654068 0.2740684931574966 Q 14.216984320218058 0.28465482980306517 14.253448368663905 0.2964174260759191 Q 14.289912417109752 0.308180022348773 14.325200205928315 0.32229513787619773 Q 14.360487994746876 0.3364102534036224 14.386365706547155 0.3575829266947595 Q 14.442826168656854 0.40345705215888983 14.442826168656854 0.48226644718701117 Q 14.442826168656854 0.5199067552601437 14.425182274247572 0.5534301546377774 Q 14.407538379838291 0.5869535540154112 14.375779369901586 0.6093024869338336 Q 14.311085090400889 0.6563528720252493 14.202869204690634 0.6563528720252493 Q 14.100534617116804 0.6563528720252493 14.022901481715968 0.604597448424692 Q 13.974674836997266 0.5740146981152718 13.974674836997266 0.5528420248241347 Q 13.974674836997266 0.5340218707875685 13.993494991033833 0.5222592745147145 Q 13.998200029542975 0.5175542360055729 14.005257587306687 0.5175542360055729 Q 14.0123151450704 0.5175542360055729 14.020548962461397 0.523435534142 Q 14.028782779852396 0.5293168322784269 14.039957246311607 0.5375506496694247 Q 14.051131712770818 0.5457844670604224 14.068187477366456 0.5557826738923483 Q 14.085243241962093 0.565780880724274 14.10406339599866 0.5740146981152718 Q 14.151113781090077 0.5928348521518381 14.195811646926922 0.5916585925245527 Q 14.240509512763765 0.5904823328972673 14.26756348419133 0.5846010347608404 Q 14.294617455618894 0.5787197366244133 14.31579012891003 0.5646046210969886 Q 14.360487994746876 0.5340218707875685 14.361664254374162 0.48697148569615273 Q 14.361664254374162 0.42815850433188307 14.304027532637177 0.39639949439517747 Q 14.278149820836898 0.38228437886775274 14.24580268108655 0.3711099124085415 Q 14.213455541336202 0.3599354459493303 14.177579622703997 0.34934910930376173 Q 14.141703704071793 0.3387627726581932 14.106415915253232 0.3234713975034831 Q 14.071128126434669 0.308180022348773 14.044074155007106 0.2870073490576359 Q 13.98643743327012 0.24113322359350559 13.98643743327012 0.16938138632909666 Q 13.98643743327012 0.13174107825596404 14.004669457493044 0.09880580869197308 Q 14.022901481715968 0.06587053912798202 14.054660491652674 0.044697865836844985 Q 14.115825992271514 0.0011762596272854031 14.207574243199774 0 Q 14.340491581083024 0 14.421653495365716 0.08586695279183376 Q 14.426358533874858 0.09292451055554607 14.426358533874858 0.10174645776018654 Q 14.426358533874858 0.110568404964827 14.425770404061215 0.11644970310125391 Q 14.425182274247572 0.12233100123768093 14.419300976111145 0.12821229937410783 Q 14.411067158720147 0.13879863601967646 14.397540173006366 0.13879863601967646 Q 14.384013187292584 0.13879863601967646 14.368721812137874 0.12115474161039552 Q 14.329905244437455 0.09292451055554607 14.306380051891749 0.08469069316454836 Q 14.259329666800332 0.06587053912798202 14.214631800963486 0.06587053912798202 Q 14.156995079226503 0.06587053912798202 14.115825992271514 0.08939573167368997 Q 14.066423087925529 0.11762596272853931 14.066423087925529 0.16702886707452586" fill="#343432" fill-rule="nonzero"></path></g><g><path d=" M 5.335096479747975 1.516620887665348 L 5.405096479747974 1.516620887665348 L 5.405096479747974 1.483620887665348 L 5.341596479747975 1.483620887665348 L 5.361596479747974 1.377620887665348 L 5.327096479747975 1.377620887665348 L 5.307096479747974 1.483620887665348 L 5.235096479747974 1.483620887665348 L 5.255096479747975 1.377620887665348 L 5.219096479747974 1.377620887665348 L 5.199096479747975 1.483620887665348 L 5.126096479747974 1.483620887665348 L 5.126096479747974 1.516620887665348 L 5.193096479747974 1.516620887665348 L 5.177096479747974 1.596620887665348 L 5.107596479747975 1.596620887665348 L 5.107596479747975 1.630120887665348 L 5.170596479747974 1.630120887665348 L 5.151596479747974 1.734620887665348 L 5.186596479747974 1.734620887665348 L 5.206096479747974 1.630120887665348 L 5.277596479747975 1.630120887665348 L 5.2570964797479744 1.734620887665348 L 5.292596479747974 1.734620887665348 L 5.3130964797479745 1.630120887665348 L 5.388096479747975 1.630120887665348 L 5.388096479747975 1.596620887665348 L 5.3195964797479744 1.596620887665348 M 5.212596479747974 1.596620887665348 L 5.2280964797479745 1.516620887665348 L 5.299596479747975 1.516620887665348 L 5.284096479747975 1.596620887665348 M 5.699599409435475 1.7396208876653478 C 5.730099409435475 1.7396208876653478 5.750599409435474 1.734620887665348 5.768599409435475 1.7251208876653479 L 5.768599409435475 1.686120887665348 C 5.7500994094354745 1.694620887665348 5.728099409435474 1.701620887665348 5.699099409435474 1.701620887665348 C 5.648599409435475 1.701620887665348 5.622599409435475 1.666120887665348 5.622599409435475 1.601620887665348 C 5.622599409435475 1.534620887665348 5.648099409435474 1.500120887665348 5.701599409435475 1.500120887665348 C 5.720099409435474 1.500120887665348 5.7435994094354745 1.506620887665348 5.7595994094354745 1.512620887665348 L 5.773099409435474 1.476120887665348 C 5.757099409435474 1.468120887665348 5.729599409435474 1.4616208876653478 5.702599409435474 1.4616208876653478 C 5.630599409435475 1.4616208876653478 5.577099409435474 1.503120887665348 5.577099409435474 1.6021208876653479 C 5.577099409435474 1.6971208876653479 5.628099409435475 1.7396208876653478 5.699599409435475 1.7396208876653478 M 6.065839643810475 1.6001208876653479 C 6.065839643810475 1.5116208876653479 6.0148396438104745 1.4616208876653478 5.942339643810475 1.4616208876653478 C 5.865339643810475 1.4616208876653478 5.8178396438104745 1.5116208876653479 5.8178396438104745 1.6001208876653479 C 5.8178396438104745 1.6891208876653478 5.869839643810475 1.7396208876653478 5.940839643810475 1.7396208876653478 C 6.017339643810475 1.7396208876653478 6.065839643810475 1.6891208876653478 6.065839643810475 1.6001208876653479 M 5.863339643810475 1.6001208876653479 C 5.863339643810475 1.536620887665348 5.886839643810474 1.498620887665348 5.941339643810474 1.498620887665348 C 5.995839643810474 1.498620887665348 6.020339643810475 1.536620887665348 6.020339643810475 1.6001208876653479 C 6.020339643810475 1.663620887665348 5.995839643810474 1.7031208876653479 5.941839643810475 1.7031208876653479 C 5.887339643810475 1.7031208876653479 5.863339643810475 1.663620887665348 5.863339643810475 1.6001208876653479 M 6.430079878185475 1.4616208876653478 C 6.3950798781854745 1.4616208876653478 6.362079878185475 1.476120887665348 6.344079878185474 1.506620887665348 L 6.341579878185475 1.506620887665348 C 6.328579878185475 1.476120887665348 6.3005798781854745 1.4616208876653478 6.259579878185475 1.4616208876653478 C 6.227579878185475 1.4616208876653478 6.197079878185475 1.4751208876653479 6.180579878185474 1.503120887665348 L 6.178079878185475 1.503120887665348 L 6.171579878185475 1.466620887665348 L 6.136079878185475 1.466620887665348 L 6.136079878185475 1.734620887665348 L 6.180079878185475 1.734620887665348 L 6.180079878185475 1.595620887665348 C 6.180079878185475 1.533120887665348 6.197579878185475 1.498620887665348 6.251579878185475 1.498620887665348 C 6.289079878185475 1.498620887665348 6.306579878185475 1.520120887665348 6.306579878185475 1.5621208876653478 L 6.306579878185475 1.734620887665348 L 6.350079878185475 1.734620887665348 L 6.350079878185475 1.586620887665348 C 6.350079878185475 1.5296208876653479 6.370579878185475 1.498620887665348 6.422579878185474 1.498620887665348 C 6.459579878185474 1.498620887665348 6.477079878185474 1.520120887665348 6.477079878185474 1.5621208876653478 L 6.477079878185474 1.734620887665348 L 6.520579878185474 1.734620887665348 L 6.520579878185474 1.5601208876653478 C 6.520579878185474 1.491120887665348 6.490579878185475 1.4616208876653478 6.430079878185475 1.4616208876653478 M 6.70782865748235 1.4616208876653478 C 6.63682865748235 1.4616208876653478 6.5893286574823495 1.514620887665348 6.5893286574823495 1.6026208876653478 C 6.5893286574823495 1.692120887665348 6.64182865748235 1.7396208876653478 6.71832865748235 1.7396208876653478 C 6.754828657482349 1.7396208876653478 6.778828657482349 1.734120887665348 6.80632865748235 1.722120887665348 L 6.80632865748235 1.683620887665348 C 6.77832865748235 1.695620887665348 6.75432865748235 1.702120887665348 6.72032865748235 1.702120887665348 C 6.66682865748235 1.702120887665348 6.636328657482349 1.669620887665348 6.63482865748235 1.609120887665348 L 6.81832865748235 1.609120887665348 L 6.81832865748235 1.582620887665348 C 6.81832865748235 1.5096208876653479 6.77632865748235 1.4616208876653478 6.70782865748235 1.4616208876653478 M 6.70732865748235 1.4976208876653478 C 6.75182865748235 1.4976208876653478 6.77182865748235 1.528620887665348 6.772328657482349 1.5741208876653479 L 6.6358286574823495 1.5741208876653479 C 6.64032865748235 1.526120887665348 6.66532865748235 1.4976208876653478 6.70732865748235 1.4976208876653478 M 7.061591596935474 1.6606208876653479 C 7.061591596935474 1.617620887665348 7.032091596935475 1.6001208876653479 6.9810915969354745 1.581120887665348 C 6.929591596935475 1.561620887665348 6.912091596935475 1.552620887665348 6.912091596935475 1.530120887665348 C 6.912091596935475 1.510120887665348 6.931591596935474 1.4976208876653478 6.967591596935475 1.4976208876653478 C 6.993591596935475 1.4976208876653478 7.018591596935475 1.505120887665348 7.041091596935475 1.514620887665348 L 7.056091596935475 1.479620887665348 C 7.031091596935474 1.468620887665348 7.003091596935475 1.4616208876653478 6.970591596935475 1.4616208876653478 C 6.9105915969354745 1.4616208876653478 6.870091596935475 1.487120887665348 6.870091596935475 1.532620887665348 C 6.870091596935475 1.576620887665348 6.9010915969354745 1.592620887665348 6.953091596935475 1.612620887665348 C 7.005591596935474 1.6326208876653479 7.019091596935475 1.6446208876653479 7.019091596935475 1.6646208876653479 C 7.019091596935475 1.688620887665348 7.000091596935475 1.704120887665348 6.9555915969354745 1.704120887665348 C 6.924091596935475 1.704120887665348 6.891591596935474 1.6931208876653479 6.8705915969354745 1.682620887665348 L 6.8705915969354745 1.722620887665348 C 6.891091596935475 1.733620887665348 6.9170915969354745 1.7396208876653478 6.954591596935475 1.7396208876653478 C 7.020091596935475 1.7396208876653478 7.061591596935474 1.712620887665348 7.061591596935474 1.6606208876653479 M 7.280598432872975 1.366120887665348 C 7.266098432872975 1.366120887665348 7.2545984328729745 1.374620887665348 7.2545984328729745 1.394120887665348 C 7.2545984328729745 1.413120887665348 7.266098432872975 1.422120887665348 7.280598432872975 1.422120887665348 C 7.294098432872975 1.422120887665348 7.306098432872974 1.413120887665348 7.306098432872974 1.394120887665348 C 7.306098432872974 1.374620887665348 7.294098432872975 1.366120887665348 7.280598432872975 1.366120887665348 M 7.302098432872975 1.466620887665348 L 7.258098432872975 1.466620887665348 L 7.258098432872975 1.734620887665348 L 7.302098432872975 1.734620887665348 M 7.51684623560735 1.4616208876653478 C 7.48284623560735 1.4616208876653478 7.44984623560735 1.4751208876653479 7.4323462356073495 1.503120887665348 L 7.42984623560735 1.503120887665348 L 7.42334623560735 1.466620887665348 L 7.38784623560735 1.466620887665348 L 7.38784623560735 1.734620887665348 L 7.43184623560735 1.734620887665348 L 7.43184623560735 1.595620887665348 C 7.43184623560735 1.533120887665348 7.45084623560735 1.498620887665348 7.51034623560735 1.498620887665348 C 7.55134623560735 1.498620887665348 7.570346235607349 1.520120887665348 7.570346235607349 1.563120887665348 L 7.570346235607349 1.734620887665348 L 7.61384623560735 1.734620887665348 L 7.61384623560735 1.5601208876653478 C 7.61384623560735 1.491120887665348 7.58084623560735 1.4616208876653478 7.51684623560735 1.4616208876653478 M 8.032341596935474 1.4611208876653479 C 8.032341596935474 1.410120887665348 7.9963415969354745 1.3726208876653478 7.921841596935475 1.3726208876653478 C 7.873841596935475 1.3726208876653478 7.835841596935475 1.389620887665348 7.810341596935475 1.409620887665348 L 7.832341596935475 1.439620887665348 C 7.858841596935475 1.422120887665348 7.883841596935475 1.409620887665348 7.922341596935475 1.409620887665348 C 7.962341596935475 1.409620887665348 7.987341596935475 1.429620887665348 7.987341596935475 1.464120887665348 C 7.987341596935475 1.504620887665348 7.9563415969354745 1.5316208876653479 7.897841596935475 1.5316208876653479 L 7.862841596935475 1.5316208876653479 L 7.862841596935475 1.569120887665348 L 7.897341596935475 1.569120887665348 C 7.960341596935475 1.569120887665348 7.997341596935475 1.587620887665348 7.997341596935475 1.632120887665348 C 7.997341596935475 1.676120887665348 7.9708415969354744 1.702620887665348 7.906841596935475 1.702620887665348 C 7.874841596935475 1.702620887665348 7.838341596935475 1.694120887665348 7.808341596935475 1.6791208876653478 L 7.808341596935475 1.720120887665348 C 7.837841596935474 1.734620887665348 7.868841596935475 1.7396208876653478 7.906341596935475 1.7396208876653478 C 8.000841596935475 1.7396208876653478 8.043341596935475 1.695620887665348 8.043341596935475 1.633120887665348 C 8.043341596935475 1.5861208876653479 8.015341596935475 1.555620887665348 7.958341596935475 1.548620887665348 L 7.958341596935475 1.546620887665348 C 8.003341596935474 1.5376208876653479 8.032341596935474 1.509120887665348 8.032341596935474 1.4611208876653479 M 8.334102339122975 1.555620887665348 C 8.334102339122975 1.439620887665348 8.295102339122975 1.372120887665348 8.215102339122975 1.372120887665348 C 8.129602339122975 1.372120887665348 8.097102339122975 1.440120887665348 8.097102339122975 1.555620887665348 C 8.097102339122975 1.671120887665348 8.134602339122974 1.7396208876653478 8.215102339122975 1.7396208876653478 C 8.300602339122975 1.7396208876653478 8.334102339122975 1.671120887665348 8.334102339122975 1.555620887665348 M 8.141102339122975 1.555620887665348 C 8.141102339122975 1.458120887665348 8.161102339122975 1.409620887665348 8.215102339122975 1.409620887665348 C 8.268602339122975 1.409620887665348 8.289602339122975 1.458120887665348 8.289602339122975 1.555620887665348 C 8.289602339122975 1.654120887665348 8.268602339122975 1.702120887665348 8.215102339122975 1.702120887665348 C 8.161102339122975 1.702120887665348 8.141102339122975 1.653620887665348 8.141102339122975 1.555620887665348 M 8.826617964122974 1.4616208876653478 C 8.791617964122976 1.4616208876653478 8.758617964122974 1.476120887665348 8.740617964122976 1.506620887665348 L 8.738117964122974 1.506620887665348 C 8.725117964122974 1.476120887665348 8.697117964122976 1.4616208876653478 8.656117964122975 1.4616208876653478 C 8.624117964122975 1.4616208876653478 8.593617964122975 1.4751208876653479 8.577117964122975 1.503120887665348 L 8.574617964122975 1.503120887665348 L 8.568117964122974 1.466620887665348 L 8.532617964122975 1.466620887665348 L 8.532617964122975 1.734620887665348 L 8.576617964122974 1.734620887665348 L 8.576617964122974 1.595620887665348 C 8.576617964122974 1.533120887665348 8.594117964122974 1.498620887665348 8.648117964122974 1.498620887665348 C 8.685617964122976 1.498620887665348 8.703117964122974 1.520120887665348 8.703117964122974 1.5621208876653478 L 8.703117964122974 1.734620887665348 L 8.746617964122976 1.734620887665348 L 8.746617964122976 1.586620887665348 C 8.746617964122976 1.5296208876653479 8.767117964122974 1.498620887665348 8.819117964122976 1.498620887665348 C 8.856117964122975 1.498620887665348 8.873617964122975 1.520120887665348 8.873617964122975 1.5621208876653478 L 8.873617964122975 1.734620887665348 L 8.917117964122975 1.734620887665348 L 8.917117964122975 1.5601208876653478 C 8.917117964122975 1.491120887665348 8.887117964122975 1.4616208876653478 8.826617964122974 1.4616208876653478 M 9.02336674341985 1.366120887665348 C 9.00886674341985 1.366120887665348 8.99736674341985 1.374620887665348 8.99736674341985 1.394120887665348 C 8.99736674341985 1.413120887665348 9.00886674341985 1.422120887665348 9.02336674341985 1.422120887665348 C 9.03686674341985 1.422120887665348 9.04886674341985 1.413120887665348 9.04886674341985 1.394120887665348 C 9.04886674341985 1.374620887665348 9.03686674341985 1.366120887665348 9.02336674341985 1.366120887665348 M 9.044866743419849 1.466620887665348 L 9.00086674341985 1.466620887665348 L 9.00086674341985 1.734620887665348 L 9.044866743419849 1.734620887665348 M 9.259614546154225 1.4616208876653478 C 9.225614546154224 1.4616208876653478 9.192614546154225 1.4751208876653479 9.175114546154225 1.503120887665348 L 9.172614546154225 1.503120887665348 L 9.166114546154224 1.466620887665348 L 9.130614546154225 1.466620887665348 L 9.130614546154225 1.734620887665348 L 9.174614546154224 1.734620887665348 L 9.174614546154224 1.595620887665348 C 9.174614546154224 1.533120887665348 9.193614546154224 1.498620887665348 9.253114546154224 1.498620887665348 C 9.294114546154224 1.498620887665348 9.313114546154225 1.520120887665348 9.313114546154225 1.563120887665348 L 9.313114546154225 1.734620887665348 L 9.356614546154224 1.734620887665348 L 9.356614546154224 1.5601208876653478 C 9.356614546154224 1.491120887665348 9.323614546154225 1.4616208876653478 9.259614546154225 1.4616208876653478" fill="#343432" fill-rule="nonzero"></path></g></g><defs><clipPath id="SvgjsClipPath23958"><path d=" M 8.964271444024819 -0.20859175601281332 h 1.0747126436781613 v 1.0747126436781613 h -1.0747126436781613 Z"></path></clipPath><clipPath id="SvgjsClipPath239563fa2f64f-c756-4ea6-bab6-57c8d295802f"><path d=" M 8.964271444024819 -0.20859175601281332 L 10.03898408770298 -0.20859175601281332 L 10.03898408770298 0.866120887665348 L 8.964271444024819 0.866120887665348 Z"></path></clipPath></defs></svg>